<svg width="58" height="58" viewBox="0 0 58 58" fill="none" xmlns="http://www.w3.org/2000/svg">
<circle cx="29" cy="29" r="29" fill="#FFA93F"/>
<g clip-path="url(#clip0_3_16)">
<path d="M26.0066 29.4806H32.8722C33.2515 29.4806 33.5587 29.1733 33.5587 28.794V28.1075C33.5587 27.7281 33.2515 27.4209 32.8722 27.4209H26.0066C25.6273 27.4209 25.3201 27.7281 25.3201 28.1075V28.794C25.3201 29.1733 25.6273 29.4806 26.0066 29.4806ZM25.3201 32.9133C25.3201 33.2927 25.6273 33.5999 26.0066 33.5999H32.8722C33.2515 33.5999 33.5587 33.2927 33.5587 32.9133V32.2268C33.5587 31.8475 33.2515 31.5402 32.8722 31.5402H26.0066C25.6273 31.5402 25.3201 31.8475 25.3201 32.2268V32.9133ZM29.4394 38.111C28.7348 38.111 28.0302 37.8939 27.4286 37.4592L18.4545 30.9764V40.1221C18.4545 41.2597 19.3767 42.1818 20.5142 42.1818H38.3646C39.5021 42.1818 40.4242 41.2597 40.4242 40.1221V30.9764L31.4501 37.4592C30.8485 37.8934 30.144 38.111 29.4394 38.111ZM39.6351 27.2042C39.2554 26.9064 38.8954 26.6262 38.3646 26.2255V24.3314C38.3646 23.1939 37.4425 22.2718 36.3049 22.2718H32.9773C32.8468 22.1774 32.7254 22.089 32.5894 21.9903C31.8681 21.4638 30.4349 20.1971 29.4394 20.2121C28.4439 20.1971 27.0111 21.4638 26.2894 21.9903C26.1534 22.089 26.0319 22.1774 25.9015 22.2718H22.5739C21.4363 22.2718 20.5142 23.1939 20.5142 24.3314V26.2255C19.9834 26.6258 19.6234 26.9064 19.2437 27.2042C18.9978 27.3969 18.7991 27.6429 18.6624 27.9236C18.5257 28.2044 18.4546 28.5126 18.4545 28.8249V29.2819L22.5739 32.2577V24.3314H36.3049V32.2577L40.4242 29.2819V28.8249C40.4242 28.1924 40.1333 27.5947 39.6351 27.2042V27.2042Z" fill="black"/>
</g>
<defs>
<clipPath id="clip0_3_16">
<rect width="21.9697" height="21.9697" fill="white" transform="translate(18.4545 20.2121)"/>
</clipPath>
</defs>
</svg>
