<svg width="48" height="55" viewBox="0 0 48 55" fill="none" xmlns="http://www.w3.org/2000/svg">
<path d="M42.8571 0H5.14286C2.30357 0 0 2.63951 0 5.89286V49.1071C0 52.3605 2.30357 55 5.14286 55H42.8571C45.6964 55 48 52.3605 48 49.1071V5.89286C48 2.63951 45.6964 0 42.8571 0ZM29.7107 47.106C28.8107 47.2902 28.4786 46.6518 28.4786 46.1239C28.4786 45.4609 28.5 42.0725 28.5 39.3348C28.5 37.4196 27.9429 36.2042 27.2893 35.5659C31.2536 35.0625 35.4321 34.4364 35.4321 26.5915C35.4321 24.3571 34.7357 23.24 33.6 21.8036C33.7821 21.2757 34.3929 19.1027 33.4179 16.279C31.9286 15.7511 28.5214 18.4766 28.5214 18.4766C27.1071 18.0223 25.575 17.7891 24.0643 17.7891C22.5536 17.7891 21.0214 18.0223 19.6071 18.4766C19.6071 18.4766 16.2 15.7511 14.7107 16.279C13.7357 19.0904 14.3357 21.2634 14.5286 21.8036C13.3929 23.24 12.8571 24.3571 12.8571 26.5915C12.8571 34.3996 16.8536 35.0625 20.8179 35.5659C20.3036 36.0938 19.8429 37.0022 19.6821 38.3036C18.6643 38.8315 16.0607 39.74 14.5071 36.5971C13.5321 34.6574 11.775 34.4978 11.775 34.4978C10.0393 34.4732 11.6571 35.75 11.6571 35.75C12.8143 36.3638 13.6286 38.721 13.6286 38.721C14.6679 42.3672 19.6393 41.1395 19.6393 41.1395C19.6393 42.846 19.6607 45.6205 19.6607 46.1239C19.6607 46.6518 19.3393 47.2902 18.4286 47.106C11.3571 44.3929 6.40714 36.683 6.40714 27.6719C6.40714 16.4018 13.9286 7.84487 23.7643 7.84487C33.6 7.84487 41.5714 16.4018 41.5714 27.6719C41.5821 36.683 36.7821 44.4051 29.7107 47.106ZM19.2 39.6049C18.9964 39.654 18.8036 39.5558 18.7821 39.3962C18.7607 39.2121 18.9 39.0525 19.1036 39.0034C19.3071 38.9788 19.5 39.077 19.5214 39.2366C19.5536 39.3962 19.4143 39.5558 19.2 39.6049ZM18.1821 39.4944C18.1821 39.654 18.0214 39.7891 17.8071 39.7891C17.5714 39.8136 17.4107 39.6786 17.4107 39.4944C17.4107 39.3348 17.5714 39.1998 17.7857 39.1998C17.9893 39.1752 18.1821 39.3103 18.1821 39.4944ZM16.7143 39.3594C16.6714 39.519 16.4571 39.5926 16.275 39.519C16.0714 39.4699 15.9321 39.2857 15.975 39.1261C16.0179 38.9665 16.2321 38.8929 16.4143 38.942C16.6286 39.0156 16.7679 39.1998 16.7143 39.3594ZM15.3964 38.6964C15.3 38.8315 15.0964 38.8069 14.9357 38.6228C14.775 38.4632 14.7321 38.2299 14.8393 38.1194C14.9357 37.9844 15.1393 38.0089 15.3 38.1931C15.4393 38.3527 15.4929 38.5982 15.3964 38.6964ZM14.4214 37.5792C14.325 37.6529 14.1429 37.5792 14.025 37.3951C13.9071 37.2109 13.9071 37.0022 14.025 36.9163C14.1429 36.8058 14.325 36.8917 14.4214 37.0759C14.5393 37.26 14.5393 37.481 14.4214 37.5792ZM13.725 36.3884C13.6286 36.4989 13.4679 36.4375 13.35 36.3147C13.2321 36.1551 13.2107 35.971 13.3071 35.885C13.4036 35.7746 13.5643 35.8359 13.6821 35.9587C13.8 36.1183 13.8214 36.3025 13.725 36.3884ZM13.0071 35.4799C12.9643 35.5904 12.825 35.615 12.7071 35.529C12.5679 35.4554 12.5036 35.3203 12.5464 35.2098C12.5893 35.1362 12.7071 35.0993 12.8464 35.1607C12.9857 35.2467 13.05 35.3817 13.0071 35.4799Z" fill="white"/>
</svg>
