<svg width="48" height="52" viewBox="0 0 48 52" fill="none" xmlns="http://www.w3.org/2000/svg">
<path d="M44.5714 0.4375H3.41786C1.53214 0.4375 0 2.21763 0 4.4029V51.4721C0 53.6574 1.53214 55.4375 3.41786 55.4375H44.5714C46.4571 55.4375 48 53.6574 48 51.4721V4.4029C48 2.21763 46.4571 0.4375 44.5714 0.4375ZM14.5071 47.5804H7.39286V21.3326H14.5179V47.5804H14.5071ZM10.95 17.7478C8.66786 17.7478 6.825 15.6239 6.825 13.0212C6.825 10.4185 8.66786 8.29464 10.95 8.29464C13.2214 8.29464 15.075 10.4185 15.075 13.0212C15.075 15.6362 13.2321 17.7478 10.95 17.7478V17.7478ZM41.175 47.5804H34.0607V34.8125C34.0607 31.7679 34.0071 27.8516 30.3643 27.8516C26.6571 27.8516 26.0893 31.1663 26.0893 34.5915V47.5804H18.975V21.3326H25.8V24.9174H25.8964C26.85 22.8549 29.175 20.6819 32.6357 20.6819C39.8357 20.6819 41.175 26.1205 41.175 33.192V47.5804V47.5804Z" fill="white"/>
</svg>
