<svg width="58" height="58" viewBox="0 0 58 58" fill="none" xmlns="http://www.w3.org/2000/svg">
<circle cx="29" cy="29" r="29" fill="#FFA93F"/>
<path d="M39.7973 33.9789L34.9915 31.9192C34.7862 31.8317 34.558 31.8133 34.3413 31.8667C34.1246 31.9201 33.9311 32.0424 33.79 32.2153L31.6617 34.8156C28.3215 33.2407 25.6334 30.5526 24.0585 27.2124L26.6589 25.0841C26.8321 24.9432 26.9547 24.7498 27.0081 24.533C27.0615 24.3162 27.0429 24.0879 26.9549 23.8827L24.8953 19.0768C24.7988 18.8556 24.6281 18.6749 24.4127 18.566C24.1973 18.4572 23.9506 18.4268 23.7153 18.4803L19.2527 19.5102C19.0257 19.5626 18.8233 19.6903 18.6783 19.8726C18.5334 20.0549 18.4545 20.2809 18.4545 20.5138C18.4545 31.5201 27.3754 40.4239 38.3646 40.4239C38.5975 40.424 38.8237 40.3452 39.006 40.2002C39.1884 40.0553 39.3162 39.8527 39.3687 39.6258L40.3985 35.1632C40.4516 34.9266 40.4207 34.679 40.311 34.4628C40.2013 34.2467 40.0196 34.0755 39.7973 33.9789V33.9789Z" fill="black"/>
</svg>
